<svg xmlns="http://www.w3.org/2000/svg" width="1440" height="1089" preserveAspectRatio="none" viewBox="0 0 1440 1089"><g mask="url(&amp;quot;#a&amp;quot;)" fill="none"><path fill="#0e2a47" d="M0 0h1440v1089H0z"/><path d="M3 663l-1 493M560 831l-1 722" stroke-width="6" stroke="url(#b)" stroke-linecap="round" class="Up"/><path d="M17 954l-1-398" stroke-width="8" stroke="url(#b)" stroke-linecap="round" class="Up"/><path d="M313 685l-1 804" stroke-width="8" stroke="url(#c)" stroke-linecap="round" class="Down"/><path d="M1399 226l-1 664" stroke-width="10" stroke="url(#c)" stroke-linecap="round" class="Down"/><path d="M915 229l-1 342" stroke-width="10" stroke="url(#b)" stroke-linecap="round" class="Up"/><path d="M314 980l-1 452" stroke-width="8" stroke="url(#b)" stroke-linecap="round" class="Up"/><path d="M257 34l-1-581" stroke-width="6" stroke="url(#c)" stroke-linecap="round" class="Down"/><path d="M1058 819l-1 344" stroke-width="10" stroke="url(#b)" stroke-linecap="round" class="Up"/><path d="M1390 901l-1 747" stroke-width="8" stroke="url(#b)" stroke-linecap="round" class="Up"/><path d="M729 14l-1-676" stroke-width="10" stroke="url(#c)" stroke-linecap="round" class="Down"/><path d="M1014 353l-1 541M93 664L92-12" stroke-width="6" stroke="url(#c)" stroke-linecap="round" class="Down"/><path d="M976 139l-1 748" stroke-width="10" stroke="url(#c)" stroke-linecap="round" class="Down"/><path d="M452 392l-1-448M679 654l-1 301" stroke-width="10" stroke="url(#b)" stroke-linecap="round" class="Up"/><path d="M549 36l-1-363" stroke-width="6" stroke="url(#c)" stroke-linecap="round" class="Down"/><path d="M91 183l-1 342" stroke-width="8" stroke="url(#c)" stroke-linecap="round" class="Down"/><path d="M457 95l-1-677" stroke-width="10" stroke="url(#c)" stroke-linecap="round" class="Down"/><path d="M378 694l-1-300" stroke-width="8" stroke="url(#b)" stroke-linecap="round" class="Up"/><path d="M655 403l-1-386" stroke-width="10" stroke="url(#b)" stroke-linecap="round" class="Up"/><path d="M1310 285l-1 427" stroke-width="6" stroke="url(#b)" stroke-linecap="round" class="Up"/><path d="M1388 143l-1 463" stroke-width="8" stroke="url(#b)" stroke-linecap="round" class="Up"/><path d="M826 173l-1-688" stroke-width="6" stroke="url(#c)" stroke-linecap="round" class="Down"/><path d="M1093 524l-1-437" stroke-width="8" stroke="url(#c)" stroke-linecap="round" class="Down"/><path d="M952 352l-1-532M601 772l-1 482M1267 1077l-1-798" stroke-width="6" stroke="url(#b)" stroke-linecap="round" class="Up"/><path d="M84 907l-1-627" stroke-width="10" stroke="url(#c)" stroke-linecap="round" class="Down"/><path d="M606 427l-1-295M1157 379l-1 512M359 144l-1 612" stroke-width="6" stroke="url(#c)" stroke-linecap="round" class="Down"/><path d="M1137 456l-1 556" stroke-width="10" stroke="url(#c)" stroke-linecap="round" class="Down"/><path d="M1030 977l-1-769" stroke-width="8" stroke="url(#c)" stroke-linecap="round" class="Down"/><path d="M246 41l-1 569" stroke-width="10" stroke="url(#c)" stroke-linecap="round" class="Down"/><path d="M1032 353l-1-367" stroke-width="8" stroke="url(#b)" stroke-linecap="round" class="Up"/></g><defs><mask id="a"><path fill="#fff" d="M0 0h1440v1089H0z"/></mask><linearGradient x1="0%" y1="100%" x2="0%" y2="0%" id="b"><stop stop-color="rgba(28, 83, 142, 0)" offset="0"/><stop stop-color="#1c538e" offset="1"/></linearGradient><linearGradient x1="0%" y1="0%" x2="0%" y2="100%" id="c"><stop stop-color="rgba(28, 83, 142, 0)" offset="0"/><stop stop-color="#1c538e" offset="1"/></linearGradient></defs></svg>