<svg xmlns="http://www.w3.org/2000/svg" version="1.1" xmlns:xlink="http://www.w3.org/1999/xlink" xmlns:svgjs="http://svgjs.com/svgjs" width="1440" height="1089" preserveAspectRatio="none" viewBox="0 0 1440 1089"><g mask="url(&quot;#SvgjsMask1021&quot;)" fill="none"><rect width="1440" height="1089" x="0" y="0" fill="#0e2a47"></rect><path d="M3 663L2 1156" stroke-width="6" stroke="url(#SvgjsLinearGradient1022)" stroke-linecap="round" class="Up"></path><path d="M560 831L559 1553" stroke-width="6" stroke="url(#SvgjsLinearGradient1022)" stroke-linecap="round" class="Up"></path><path d="M17 954L16 556" stroke-width="8" stroke="url(#SvgjsLinearGradient1022)" stroke-linecap="round" class="Up"></path><path d="M313 685L312 1489" stroke-width="8" stroke="url(#SvgjsLinearGradient1023)" stroke-linecap="round" class="Down"></path><path d="M1399 226L1398 890" stroke-width="10" stroke="url(#SvgjsLinearGradient1023)" stroke-linecap="round" class="Down"></path><path d="M915 229L914 571" stroke-width="10" stroke="url(#SvgjsLinearGradient1022)" stroke-linecap="round" class="Up"></path><path d="M314 980L313 1432" stroke-width="8" stroke="url(#SvgjsLinearGradient1022)" stroke-linecap="round" class="Up"></path><path d="M257 34L256 -547" stroke-width="6" stroke="url(#SvgjsLinearGradient1023)" stroke-linecap="round" class="Down"></path><path d="M1058 819L1057 1163" stroke-width="10" stroke="url(#SvgjsLinearGradient1022)" stroke-linecap="round" class="Up"></path><path d="M1390 901L1389 1648" stroke-width="8" stroke="url(#SvgjsLinearGradient1022)" stroke-linecap="round" class="Up"></path><path d="M729 14L728 -662" stroke-width="10" stroke="url(#SvgjsLinearGradient1023)" stroke-linecap="round" class="Down"></path><path d="M1014 353L1013 894" stroke-width="6" stroke="url(#SvgjsLinearGradient1023)" stroke-linecap="round" class="Down"></path><path d="M93 664L92 -12" stroke-width="6" stroke="url(#SvgjsLinearGradient1023)" stroke-linecap="round" class="Down"></path><path d="M976 139L975 887" stroke-width="10" stroke="url(#SvgjsLinearGradient1023)" stroke-linecap="round" class="Down"></path><path d="M452 392L451 -56" stroke-width="10" stroke="url(#SvgjsLinearGradient1022)" stroke-linecap="round" class="Up"></path><path d="M679 654L678 955" stroke-width="10" stroke="url(#SvgjsLinearGradient1022)" stroke-linecap="round" class="Up"></path><path d="M549 36L548 -327" stroke-width="6" stroke="url(#SvgjsLinearGradient1023)" stroke-linecap="round" class="Down"></path><path d="M91 183L90 525" stroke-width="8" stroke="url(#SvgjsLinearGradient1023)" stroke-linecap="round" class="Down"></path><path d="M457 95L456 -582" stroke-width="10" stroke="url(#SvgjsLinearGradient1023)" stroke-linecap="round" class="Down"></path><path d="M378 694L377 394" stroke-width="8" stroke="url(#SvgjsLinearGradient1022)" stroke-linecap="round" class="Up"></path><path d="M655 403L654 17" stroke-width="10" stroke="url(#SvgjsLinearGradient1022)" stroke-linecap="round" class="Up"></path><path d="M1310 285L1309 712" stroke-width="6" stroke="url(#SvgjsLinearGradient1022)" stroke-linecap="round" class="Up"></path><path d="M1388 143L1387 606" stroke-width="8" stroke="url(#SvgjsLinearGradient1022)" stroke-linecap="round" class="Up"></path><path d="M826 173L825 -515" stroke-width="6" stroke="url(#SvgjsLinearGradient1023)" stroke-linecap="round" class="Down"></path><path d="M1093 524L1092 87" stroke-width="8" stroke="url(#SvgjsLinearGradient1023)" stroke-linecap="round" class="Down"></path><path d="M952 352L951 -180" stroke-width="6" stroke="url(#SvgjsLinearGradient1022)" stroke-linecap="round" class="Up"></path><path d="M601 772L600 1254" stroke-width="6" stroke="url(#SvgjsLinearGradient1022)" stroke-linecap="round" class="Up"></path><path d="M1267 1077L1266 279" stroke-width="6" stroke="url(#SvgjsLinearGradient1022)" stroke-linecap="round" class="Up"></path><path d="M84 907L83 280" stroke-width="10" stroke="url(#SvgjsLinearGradient1023)" stroke-linecap="round" class="Down"></path><path d="M606 427L605 132" stroke-width="6" stroke="url(#SvgjsLinearGradient1023)" stroke-linecap="round" class="Down"></path><path d="M1157 379L1156 891" stroke-width="6" stroke="url(#SvgjsLinearGradient1023)" stroke-linecap="round" class="Down"></path><path d="M359 144L358 756" stroke-width="6" stroke="url(#SvgjsLinearGradient1023)" stroke-linecap="round" class="Down"></path><path d="M1137 456L1136 1012" stroke-width="10" stroke="url(#SvgjsLinearGradient1023)" stroke-linecap="round" class="Down"></path><path d="M1030 977L1029 208" stroke-width="8" stroke="url(#SvgjsLinearGradient1023)" stroke-linecap="round" class="Down"></path><path d="M246 41L245 610" stroke-width="10" stroke="url(#SvgjsLinearGradient1023)" stroke-linecap="round" class="Down"></path><path d="M1032 353L1031 -14" stroke-width="8" stroke="url(#SvgjsLinearGradient1022)" stroke-linecap="round" class="Up"></path></g><defs><mask id="SvgjsMask1021"><rect width="1440" height="1089" fill="#ffffff"></rect></mask><linearGradient x1="0%" y1="100%" x2="0%" y2="0%" id="SvgjsLinearGradient1022"><stop stop-color="rgba(28, 83, 142, 0)" offset="0"></stop><stop stop-color="#1c538e" offset="1"></stop></linearGradient><linearGradient x1="0%" y1="0%" x2="0%" y2="100%" id="SvgjsLinearGradient1023"><stop stop-color="rgba(28, 83, 142, 0)" offset="0"></stop><stop stop-color="#1c538e" offset="1"></stop></linearGradient></defs></svg>